<svg width="1021" height="714" xmlns="http://www.w3.org/2000/svg" xmlns:xlink="http://www.w3.org/1999/xlink" overflow="hidden"><defs><clipPath id="clip0"><rect x="40" y="0" width="1021" height="714"/></clipPath></defs><g clip-path="url(#clip0)" transform="translate(-40 0)"><rect x="41.5001" y="6.50005" width="1018" height="706" stroke="#000000" stroke-width="1.33333" stroke-miterlimit="8" fill="#FFFFFF"/><path d="M55.5001 77.5589C55.5001 70.899 60.899 65.5001 67.5589 65.5001L200.441 65.5001C207.101 65.5001 212.5 70.899 212.5 77.5589L212.5 83.4412C212.5 90.1011 207.101 95.5001 200.441 95.5001L67.5589 95.5001C60.899 95.5001 55.5001 90.1011 55.5001 83.4412Z" stroke="#000000" stroke-miterlimit="8" fill="#FFF2CC" fill-rule="evenodd"/><text font-family="Calibri,Calibri_MSFontService,sans-serif" font-weight="400" font-size="15" transform="translate(72.7642 85)">clicks<tspan font-size="15" x="34.6667" y="0">on rate </tspan><tspan font-size="15" x="81" y="0">button</tspan></text><path d="M630.5 77.5588C630.5 70.8989 635.899 65.5001 642.559 65.5001L776.441 65.5001C783.101 65.5001 788.5 70.8989 788.5 77.5588L788.5 83.4413C788.5 90.1012 783.101 95.5001 776.441 95.5001L642.559 95.5001C635.899 95.5001 630.5 90.1012 630.5 83.4413Z" stroke="#000000" stroke-miterlimit="8" fill="#FFF2CC" fill-rule="evenodd"/><text font-family="Calibri,Calibri_MSFontService,sans-serif" font-weight="400" font-size="15" transform="translate(670.469 85)">opens<tspan font-size="15" x="39.3333" y="0">popup</tspan></text><path d="M55.5001 247.961C55.5001 241.079 61.0789 235.5 67.9608 235.5L200.039 235.5C206.921 235.5 212.5 241.079 212.5 247.961L212.5 254.039C212.5 260.921 206.921 266.5 200.039 266.5L67.9608 266.5C61.0789 266.5 55.5001 260.921 55.5001 254.039Z" stroke="#000000" stroke-miterlimit="8" fill="#FFF2CC" fill-rule="evenodd"/><text font-family="Calibri,Calibri_MSFontService,sans-serif" font-weight="400" font-size="15" transform="translate(90.1808 255)">upload<tspan font-size="15" x="44.3333" y="0">picture</tspan></text><path d="M290.5 247.961C290.5 241.079 296.079 235.5 302.961 235.5L436.039 235.5C442.921 235.5 448.5 241.079 448.5 247.961L448.5 254.039C448.5 260.921 442.921 266.5 436.039 266.5L302.961 266.5C296.079 266.5 290.5 260.921 290.5 254.039Z" stroke="#000000" stroke-miterlimit="8" fill="#FFF2CC" fill-rule="evenodd"/><text font-family="Calibri,Calibri_MSFontService,sans-serif" font-weight="400" font-size="15" transform="translate(327.484 255)">enter<tspan font-size="15" x="35.6667" y="0">product</tspan></text><path d="M294.5 390.961C294.5 384.079 300.079 378.5 306.961 378.5L440.039 378.5C446.921 378.5 452.5 384.079 452.5 390.961L452.5 397.039C452.5 403.921 446.921 409.5 440.039 409.5L306.961 409.5C300.079 409.5 294.5 403.921 294.5 397.039Z" stroke="#000000" stroke-miterlimit="8" fill="#FFF2CC" fill-rule="evenodd"/><text font-family="Calibri,Calibri_MSFontService,sans-serif" font-weight="400" font-size="15" transform="translate(337.594 399)">enter<tspan font-size="15" x="35.6667" y="0">rating</tspan></text><path d="M894.5 336.961C894.5 330.079 900.079 324.5 906.961 324.5L1040.04 324.5C1046.92 324.5 1052.5 330.079 1052.5 336.961L1052.5 343.039C1052.5 349.921 1046.92 355.5 1040.04 355.5L906.961 355.5C900.079 355.5 894.5 349.921 894.5 343.039Z" stroke="#000000" stroke-miterlimit="8" fill="#FFF2CC" fill-rule="evenodd"/><text font-family="Calibri,Calibri_MSFontService,sans-serif" font-weight="400" font-size="15" transform="translate(911.438 345)">create<tspan font-size="15" x="41.1667" y="0">product</tspan><tspan font-size="15" x="91.3334" y="0">in DB</tspan></text><path d="M55.5001 531.961C55.5001 525.079 61.0789 519.5 67.9608 519.5L200.039 519.5C206.921 519.5 212.5 525.079 212.5 531.961L212.5 538.039C212.5 544.921 206.921 550.5 200.039 550.5L67.9608 550.5C61.0789 550.5 55.5001 544.921 55.5001 538.039Z" stroke="#000000" stroke-miterlimit="8" fill="#FFF2CC" fill-rule="evenodd"/><text font-family="Calibri,Calibri_MSFontService,sans-serif" font-weight="400" font-size="15" transform="translate(101.764 539)">tag <tspan font-size="15" x="22" y="0">friends</tspan></text><path d="M445.5 533.961C445.5 527.079 451.079 521.5 457.961 521.5L590.039 521.5C596.921 521.5 602.5 527.079 602.5 533.961L602.5 540.039C602.5 546.921 596.921 552.5 590.039 552.5L457.961 552.5C451.079 552.5 445.5 546.921 445.5 540.039Z" stroke="#000000" stroke-miterlimit="8" fill="#FFF2CC" fill-rule="evenodd"/><text font-family="Calibri,Calibri_MSFontService,sans-serif" font-weight="400" font-size="15" transform="translate(478.616 541)">click<tspan font-size="15" x="29" y="0">on Post </tspan><tspan font-size="15" x="76.6667" y="0">it!</tspan></text><path d="M868.5 533.961C868.5 527.079 874.079 521.5 880.961 521.5L1014.04 521.5C1020.92 521.5 1026.5 527.079 1026.5 533.961L1026.5 540.039C1026.5 546.921 1020.92 552.5 1014.04 552.5L880.961 552.5C874.079 552.5 868.5 546.921 868.5 540.039Z" stroke="#000000" stroke-miterlimit="8" fill="#FFF2CC" fill-rule="evenodd"/><text font-family="Calibri,Calibri_MSFontService,sans-serif" font-weight="400" font-size="15" transform="translate(893.497 542)">insert<tspan font-size="15" x="37.3333" y="0">rating</tspan><tspan font-size="15" x="75.5" y="0">in DB</tspan></text><path d="M631.5 634.961C631.5 628.079 637.079 622.5 643.961 622.5L776.039 622.5C782.921 622.5 788.5 628.079 788.5 634.961L788.5 641.039C788.5 647.921 782.921 653.5 776.039 653.5L643.961 653.5C637.079 653.5 631.5 647.921 631.5 641.039Z" stroke="#000000" stroke-miterlimit="8" fill="#FFF2CC" fill-rule="evenodd"/><text font-family="Calibri,Calibri_MSFontService,sans-serif" font-weight="400" font-size="15" transform="translate(673.626 643)">close<tspan font-size="15" x="33.5" y="0">popup</tspan></text><path d="M212.5 80.0001 629.74 80.0002 629.74 81.0002 212.5 81.0001ZM621.982 75.4016 630.722 80.5002 621.982 85.5987C621.743 85.7379 621.437 85.6573 621.298 85.4188 621.159 85.1802 621.24 84.8741 621.478 84.7349L629.478 80.0683 629.478 80.932 621.478 76.2654C621.24 76.1262 621.159 75.8201 621.298 75.5816 621.437 75.343 621.743 75.2625 621.982 75.4016Z"/><path d="M125.5 33.5001C125.5 28.5295 129.306 24.5001 134 24.5001 138.694 24.5001 142.5 28.5295 142.5 33.5001 142.5 38.4706 138.694 42.5001 134 42.5001 129.306 42.5001 125.5 38.4706 125.5 33.5001Z" stroke="#000000" stroke-width="1.33333" stroke-miterlimit="8" fill-rule="evenodd"/><path d="M45.5001 172.5 133.5 144.5 221.5 172.5 133.5 200.5Z" stroke="#000000" stroke-width="0.666667" stroke-miterlimit="8" fill="#66CCFF" fill-rule="evenodd"/><text font-family="Calibri,Calibri_MSFontService,sans-serif" font-weight="400" font-size="15" transform="translate(63.9112 176)">clicks<tspan font-size="15" x="34.6667" y="0">on </tspan><tspan font-size="15" x="53.3333" y="0">upload</tspan><tspan font-size="15" x="97.6667" y="0">button</tspan></text><path d="M133.833 42.5001 133.833 64.9622 133.167 64.9622 133.167 42.5001ZM138.455 57.1301 133.5 65.6237 128.546 57.1301C128.453 56.9711 128.506 56.767 128.665 56.6742 128.825 56.5815 129.029 56.6352 129.121 56.7942L133.788 64.7942 133.212 64.7942 137.879 56.7942C137.972 56.6352 138.176 56.5814 138.335 56.6742 138.494 56.767 138.547 56.9711 138.455 57.1301Z"/><path d="M710.232 95.5001 710.232 120.191 133.5 120.191 133.833 119.857 133.833 143.555 133.167 143.555 133.167 119.524 709.899 119.524 709.566 119.857 709.566 95.5001ZM138.455 135.723 133.5 144.216 128.545 135.723C128.453 135.563 128.506 135.359 128.665 135.267 128.824 135.174 129.029 135.228 129.121 135.387L133.788 143.387 133.212 143.387 137.879 135.387C137.971 135.228 138.176 135.174 138.335 135.267 138.494 135.359 138.547 135.563 138.455 135.723Z"/><path d="M133.833 200.495 134.351 235.208 133.684 235.218 133.167 200.505ZM138.855 227.308 134.028 235.874 128.947 227.456C128.852 227.298 128.902 227.093 129.06 226.998 129.218 226.903 129.423 226.954 129.518 227.111L134.303 235.041 133.727 235.049 138.274 226.981C138.365 226.82 138.568 226.763 138.728 226.854 138.889 226.944 138.945 227.147 138.855 227.308Z"/><path d="M212.5 250.167 289.492 250.167 289.492 250.833 212.5 250.833ZM281.66 245.546 290.154 250.5 281.66 255.455C281.501 255.547 281.297 255.494 281.204 255.335 281.111 255.176 281.165 254.972 281.324 254.879L289.324 250.212 289.324 250.788 281.324 246.121C281.165 246.029 281.111 245.825 281.204 245.666 281.297 245.507 281.501 245.453 281.66 245.546Z"/><path d="M835.5 251 873 223.5 910.5 251 873 278.5Z" stroke="#000000" stroke-width="0.666667" stroke-miterlimit="8" fill="#66CCFF" fill-rule="evenodd"/><path d="M9.04257e-08-0.333333 386.347-0.333229 386.347 0.333438-9.04257e-08 0.333333ZM378.518-4.95449 387.011 0.000104945 378.518 4.9547C378.359 5.04746 378.155 4.99374 378.062 4.83473 377.969 4.67571 378.023 4.4716 378.182 4.37884L386.182-0.287822 386.182 0.288031 378.182-4.37864C378.023-4.4714 377.969-4.6755 378.062-4.83452 378.155-4.99354 378.359-5.04725 378.518-4.95449Z" transform="matrix(1 0 0 -1 448.5 250.5)"/><path d="M910.5 250.167 973.6 250.167 973.6 323.786 972.934 323.786 972.934 250.5 973.267 250.833 910.5 250.833ZM978.222 315.954 973.267 324.448 968.312 315.954C968.22 315.795 968.273 315.591 968.432 315.498 968.591 315.406 968.796 315.459 968.888 315.618L973.555 323.618 972.979 323.618 977.646 315.618C977.739 315.459 977.943 315.406 978.102 315.498 978.261 315.591 978.314 315.795 978.222 315.954Z"/><path d="M873.276 278.5 873.276 328.887 373.5 328.887 373.833 328.554 373.833 377.947 373.167 377.947 373.167 328.22 872.943 328.22 872.609 328.554 872.609 278.5ZM378.455 370.115 373.5 378.608 368.546 370.115C368.453 369.956 368.506 369.752 368.665 369.659 368.824 369.566 369.029 369.62 369.121 369.779L373.788 377.779 373.212 377.779 377.879 369.779C377.972 369.62 378.176 369.566 378.335 369.659 378.494 369.752 378.547 369.956 378.455 370.115Z"/><path d="M83.5001 445.5 133.5 417.5 183.5 445.5 133.5 473.5Z" stroke="#000000" stroke-width="0.666667" stroke-miterlimit="8" fill="#66CCFF" fill-rule="evenodd"/><path d="M0-0.333333 161.449-0.333333 161.449 23.2348 160.782 23.2348 160.782 0 161.115 0.333333 0 0.333333ZM166.07 15.4028 161.115 23.8963 156.161 15.4028C156.068 15.2437 156.122 15.0396 156.281 14.9469 156.44 14.8541 156.644 14.9078 156.736 15.0668L161.403 23.0668 160.827 23.0668 165.494 15.0668C165.587 14.9078 165.791 14.8541 165.95 14.9469 166.109 15.0396 166.163 15.2437 166.07 15.4028Z" transform="matrix(-1 1.22465e-16 1.22465e-16 1 294.615 393.5)"/><path d="M973.935 355.5 973.935 394.451 453.163 394.451 453.163 393.785 973.601 393.785 973.268 394.118 973.268 355.5ZM460.992 399.073 452.499 394.118 460.992 389.163C461.151 389.071 461.355 389.124 461.448 389.283 461.541 389.442 461.487 389.647 461.328 389.739L453.328 394.406 453.328 393.83 461.328 398.497C461.487 398.59 461.541 398.794 461.448 398.953 461.355 399.112 461.151 399.165 460.992 399.073Z"/><text font-family="Calibri,Calibri_MSFontService,sans-serif" font-weight="400" font-size="15" transform="translate(95.8102 450)">tags <tspan font-size="15" x="27.6667" y="0">friends</tspan><tspan font-size="15" x="69" y="0">?</tspan></text><path d="M133.833 473.496 134.353 518.982 133.687 518.99 133.167 473.504ZM138.885 511.098 134.028 519.647 128.976 511.211C128.882 511.053 128.933 510.848 129.091 510.754 129.249 510.659 129.454 510.711 129.548 510.868L134.306 518.815 133.73 518.821 138.305 510.768C138.396 510.608 138.6 510.552 138.76 510.643 138.92 510.734 138.976 510.938 138.885 511.098Z"/><path d="M183.5 445.167 330.73 445.167 330.73 515.157 330.063 515.157 330.063 445.5 330.396 445.833 183.5 445.833ZM335.351 507.325 330.396 515.819 325.442 507.325C325.349 507.166 325.403 506.962 325.562 506.869 325.721 506.777 325.925 506.83 326.018 506.989L330.684 514.989 330.108 514.989 334.775 506.989C334.868 506.83 335.072 506.777 335.231 506.869 335.39 506.962 335.444 507.166 335.351 507.325Z"/><path d="M602.5 536.167 867.664 536.263 867.664 536.929 602.5 536.833ZM859.823 531.639 868.315 536.596 859.819 541.548C859.66 541.64 859.456 541.587 859.364 541.428 859.271 541.269 859.325 541.064 859.484 540.972L867.485 536.308 867.485 536.884 859.487 532.214C859.328 532.121 859.274 531.917 859.367 531.758 859.46 531.599 859.664 531.546 859.823 531.639Z"/><path d="M947.379 552.5 947.379 638.75 789.156 638.75 789.156 638.083 947.046 638.083 946.713 638.416 946.713 552.5ZM796.992 643.371 788.498 638.416 796.992 633.462C797.151 633.369 797.355 633.423 797.448 633.582 797.541 633.741 797.487 633.945 797.328 634.038L789.328 638.704 789.328 638.128 797.328 642.795C797.487 642.888 797.541 643.092 797.448 643.251 797.355 643.41 797.151 643.464 796.992 643.371Z"/><text font-family="Calibri,Calibri_MSFontService,sans-serif" font-weight="400" font-size="15" transform="translate(137.92 215)">yes<tspan font-size="15" x="1.90823" y="282">yes</tspan><tspan font-size="15" x="134.592" y="-48">no</tspan></text><path d="M221.5 172.167 369.759 172.167 369.759 234.956 369.092 234.956 369.092 172.5 369.425 172.833 221.5 172.833ZM374.38 227.124 369.425 235.617 364.471 227.124C364.378 226.965 364.432 226.761 364.591 226.668 364.75 226.575 364.954 226.629 365.046 226.788L369.713 234.788 369.137 234.788 373.804 226.788C373.897 226.629 374.101 226.575 374.26 226.668 374.419 226.761 374.473 226.965 374.38 227.124Z"/><text font-family="Calibri,Calibri_MSFontService,sans-serif" font-weight="400" font-size="15" transform="translate(252.535 440)">no</text><path d="M124.5 612C124.5 606.201 129.201 601.5 135 601.5 140.799 601.5 145.5 606.201 145.5 612 145.5 617.799 140.799 622.5 135 622.5 129.201 622.5 124.5 617.799 124.5 612Z" stroke="#000000" stroke-width="0.666667" stroke-miterlimit="8" fill="#66CCFF" fill-rule="evenodd"/><path d="M133.833 550.492 135.019 601.722 134.353 601.738 133.167 550.508ZM139.458 593.785 134.701 602.391 129.551 594.015C129.455 593.858 129.504 593.652 129.661 593.556 129.818 593.46 130.023 593.509 130.119 593.665L134.97 601.555 134.394 601.569 138.875 593.463C138.964 593.302 139.166 593.243 139.328 593.332 139.489 593.421 139.547 593.624 139.458 593.785Z"/><path d="M127.5 604.5 142.273 619.273" stroke="#000000" stroke-miterlimit="8" fill="none" fill-rule="evenodd"/><path d="M0 0 14.7731 14.7731" stroke="#000000" stroke-miterlimit="8" fill="none" fill-rule="evenodd" transform="matrix(1 0 0 -1 127.5 619.273)"/><path d="M703.5 695C703.5 690.858 706.858 687.5 711 687.5 715.142 687.5 718.5 690.858 718.5 695 718.5 699.142 715.142 702.5 711 702.5 706.858 702.5 703.5 699.142 703.5 695Z" stroke="#000000" stroke-width="1.33333" stroke-miterlimit="8" fill-rule="evenodd"/><path d="M699.5 695C699.5 688.649 704.649 683.5 711 683.5 717.351 683.5 722.5 688.649 722.5 695 722.5 701.351 717.351 706.5 711 706.5 704.649 706.5 699.5 701.351 699.5 695Z" stroke="#000000" stroke-width="1.33333" stroke-miterlimit="8" fill="none" fill-rule="evenodd"/><path d="M710.833 653.491 711.607 683.107 710.941 683.125 710.167 653.509ZM716.022 675.157 711.291 683.777 706.117 675.416C706.02 675.26 706.068 675.054 706.224 674.957 706.381 674.86 706.586 674.909 706.683 675.065L711.557 682.941 710.982 682.956 715.438 674.837C715.526 674.675 715.729 674.616 715.89 674.705 716.052 674.793 716.111 674.996 716.022 675.157Z"/><text font-family="Calibri,Calibri_MSFontService,sans-serif" font-weight="400" font-size="15" transform="translate(647.417 323)">[product<tspan font-size="15" x="54.6667" y="0">found</tspan><tspan font-size="15" x="89.8334" y="0">]</tspan><tspan font-size="15" x="270.425" y="-32">[</tspan>product<tspan font-size="15" x="328.425" y="-32">not </tspan>found<tspan font-size="15" x="387.091" y="-32">]</tspan></text><path d="M251.5 602.961C251.5 596.079 257.079 590.5 263.961 590.5L397.039 590.5C403.921 590.5 409.5 596.079 409.5 602.961L409.5 609.039C409.5 615.921 403.921 621.5 397.039 621.5L263.961 621.5C257.079 621.5 251.5 615.921 251.5 609.039Z" stroke="#000000" stroke-miterlimit="8" fill="#FFF2CC" fill-rule="evenodd"/><text font-family="Calibri,Calibri_MSFontService,sans-serif" font-weight="400" font-size="15" transform="translate(274.834 611)">click<tspan font-size="15" x="29" y="0">cancel</tspan><tspan font-size="15" x="70" y="0">button</tspan></text><path d="M280.5 538.5 330.5 515.5 380.5 538.5 330.5 561.5Z" stroke="#000000" stroke-width="0.666667" stroke-miterlimit="8" fill="#66CCFF" fill-rule="evenodd"/><text font-family="Calibri,Calibri_MSFontService,sans-serif" font-weight="400" font-size="15" transform="translate(295.549 543)">Post <tspan font-size="15" x="29" y="0">rating</tspan><tspan font-size="15" x="63.8333" y="0">?</tspan></text><path d="M0.0104164-0.333171 63.8283 1.66207 63.8075 2.32841-0.0104164 0.333171ZM56.1442-3.20169 64.4788 2.0159 55.8345 6.70266C55.6727 6.7904 55.4704 6.73034 55.3826 6.5685 55.2949 6.40666 55.355 6.20433 55.5168 6.11659L63.6587 1.70219 63.6407 2.27777 55.7905-2.63662C55.6344-2.7343 55.5871-2.93999 55.6848-3.09603 55.7825-3.25207 55.9882-3.29937 56.1442-3.20169Z" transform="matrix(1 0 0 -1 380.5 538.516)"/><text font-family="Calibri,Calibri_MSFontService,sans-serif" font-weight="400" font-size="15" transform="translate(391.263 535)">[post<tspan font-size="15" x="30.3333" y="0">]</tspan><tspan font-size="15" x="-58.708" y="41">[</tspan>cancel<tspan font-size="15" x="-16.5414" y="41">]</tspan></text><path d="M330.833 561.5 330.833 589.984 330.167 589.984 330.167 561.5ZM335.455 582.152 330.5 590.645 325.546 582.152C325.453 581.993 325.507 581.789 325.665 581.696 325.825 581.603 326.029 581.657 326.121 581.816L330.788 589.816 330.212 589.816 334.879 581.816C334.972 581.657 335.176 581.603 335.335 581.696 335.494 581.789 335.547 581.993 335.455 582.152Z"/><path d="M41.5001 22.5001 1059.3 22.5002" stroke="#000000" stroke-width="0.666667" stroke-miterlimit="8" fill="none" fill-rule="evenodd"/><text font-family="Calibri,Calibri_MSFontService,sans-serif" font-weight="400" font-size="15" transform="translate(310.012 20)">User<tspan font-size="15" x="368.723" y="0">Webclient</tspan><tspan font-size="15" x="606.949" y="-1">Server</tspan></text><path d="M610.5 6.50005 618.023 711.968" stroke="#000000" stroke-width="1.33333" stroke-miterlimit="8" fill="none" fill-rule="evenodd"/><path d="M808.5 7.50005 816.023 712.968" stroke="#000000" stroke-width="1.33333" stroke-miterlimit="8" fill="none" fill-rule="evenodd"/><path d="M0-0.333333 16.9726-0.333333 16.9726 300.057 16.3059 300.057 16.3059 0 16.6393 0.333333 0 0.333333ZM21.5939 292.224 16.6393 300.717 11.6847 292.224C11.5919 292.065 11.6456 291.86 11.8046 291.768 11.9637 291.675 12.1678 291.729 12.2605 291.888L16.9272 299.888 16.3513 299.888 21.018 291.888C21.1108 291.729 21.3149 291.675 21.4739 291.768 21.6329 291.86 21.6866 292.065 21.5939 292.224Z" transform="matrix(1.83697e-16 1 1 -1.83697e-16 330.5 621.5)"/></g></svg>